# xmcd
#
# Track frame offsets:
#	150
#	60700
#	98171
#	126614
#	159510
#	200944
#	221601
#	244304
#	264585
#
# Disc length: 3831 seconds
#
# Revision: 1
# Processed by: cddbd v1.5.2PL0 Copyright (c) Steve Scherf et al.
# Submitted via: audiograbber 1.83.01
#
DISCID=8f0ef509
DTITLE=Grateful Dead - 79-12-30 Oakland Auditorium Arena, Oakland CA
DYEAR=1900
DGENRE=
TTITLE0=Let It Grow > Jam
TTITLE1=Drums
TTITLE2=Space
TTITLE3=Truckin'
TTITLE4=Wharf Rat
TTITLE5=Around and Around
TTITLE6=Johnny B Goode
TTITLE7=Don't Ease Me In
TTITLE8=Brokedown Palace
EXTD=
EXTT0=
EXTT1=
EXTT2=
EXTT3=
EXTT4=
EXTT5=
EXTT6=
EXTT7=
EXTT8=
PLAYORDER=
